<?xml version="1.0" encoding="UTF-8" standalone="no"?>
<svg
   viewBox="0 0 500 500"
   version="1.1"
   id="svg12"
   xml:space="preserve"
   width="500"
   height="500"
   xmlns="http://www.w3.org/2000/svg"
   xmlns:svg="http://www.w3.org/2000/svg"
   xmlns:rdf="http://www.w3.org/1999/02/22-rdf-syntax-ns#"
   xmlns:cc="http://creativecommons.org/ns#"
   xmlns:dc="http://purl.org/dc/elements/1.1/"><defs
     id="defs16" /><title
     id="title2">HTML5 Logo Badge</title><g
     id="g303"
     transform="matrix(0.37922535,0,0,0.37922535,31.261882,44.799009)"><path
       fill="#e34f26"
       d="M 71,460 30,0 h 451 l -41,460 -185,52"
       id="path4" /><path
       fill="#ef652a"
       d="M 256,472 405,431 440,37 H 256"
       id="path6" /><path
       fill="#ebebeb"
       d="m 256,208 h -75 l -5,-58 h 80 V 94 h -1 -141 l 1,15 14,156 h 127 z m 0,147 h -1 l -63,-17 -4,-45 h -30 -26 l 7,89 116,32 h 1 z"
       id="path8" /><path
       fill="#ffffff"
       d="m 255,208 v 57 h 70 l -7,73 -63,17 v 59 l 116,-32 1,-10 13,-149 2,-15 h -16 z m 0,-114 v 35 21 0 h 137 v 0 0 l 1,-12 3,-29 1,-15 z"
       id="path10" /></g><g
     id="g3013"
     transform="matrix(0.47150428,0,0,0.47150428,251.14095,-3.114615)"><polygon
       id="polygon2989"
       points="255.778,512 107.644,470.877 74.633,100.62 437.367,100.62 404.321,470.819 "
       style="fill:#264de4" /><polygon
       id="polygon2991"
       points="256,480.523 376.03,447.246 404.27,130.894 256,130.894 "
       style="fill:#2965f1" /><polygon
       id="polygon2993"
       points="256,268.217 150.31,268.217 154.38,313.627 256,313.627 "
       style="fill:#ebebeb" /><polygon
       id="polygon2995"
       points="142.132,176.305 146.26,221.716 256,221.716 256,176.305 255.843,176.305 "
       style="fill:#ebebeb" /><polygon
       id="polygon2997"
       points="256,433.399 256,386.153 255.801,386.206 205.227,372.55 201.994,336.333 177.419,336.333 156.409,336.333 162.771,407.634 255.791,433.457 "
       style="fill:#ebebeb" /><polygon
       id="polygon3005"
       points="315.699,268.217 255.843,268.217 255.843,313.627 311.761,313.627 306.49,372.521 255.843,386.191 255.843,433.435 348.937,407.634 349.62,399.962 360.291,280.411 361.399,268.217 369.597,176.305 255.843,176.305 255.843,221.716 319.831,221.716 "
       style="fill:#ffffff" /></g><g
     id="g448"
     transform="matrix(0.2714772,0,0,0.2714772,163.096,284.64122)"><rect
       width="630"
       height="630"
       fill="#f7df1e"
       id="rect436"
       x="0"
       y="0" /><path
       d="m 423.2,492.19 c 12.69,20.72 29.2,35.95 58.4,35.95 24.53,0 40.2,-12.26 40.2,-29.2 0,-20.3 -16.1,-27.49 -43.1,-39.3 l -14.8,-6.35 c -42.72,-18.2 -71.1,-41 -71.1,-89.2 0,-44.4 33.83,-78.2 86.7,-78.2 37.64,0 64.7,13.1 84.2,47.4 l -46.1,29.6 c -10.15,-18.2 -21.1,-25.37 -38.1,-25.37 -17.34,0 -28.33,11 -28.33,25.37 0,17.76 11,24.95 36.4,35.95 l 14.8,6.34 c 50.3,21.57 78.7,43.56 78.7,93 0,53.3 -41.87,82.5 -98.1,82.5 -54.98,0 -90.5,-26.2 -107.88,-60.54 z m -209.13,5.13 c 9.3,16.5 17.76,30.45 38.1,30.45 19.45,0 31.72,-7.61 31.72,-37.2 v -201.3 h 59.2 v 202.1 c 0,61.3 -35.94,89.2 -88.4,89.2 -47.4,0 -74.85,-24.53 -88.81,-54.075 z"
       id="path438" /></g><metadata
     id="metadata450"><rdf:RDF><cc:Work
         rdf:about=""><dc:title>HTML5 Logo Badge</dc:title></cc:Work></rdf:RDF></metadata></svg>
