<?xml version="1.0" encoding="UTF-8" standalone="no"?>
<svg
   viewBox="0 0 500 500"
   version="1.1"
   id="svg12"
   xml:space="preserve"
   width="500"
   height="500"
   xmlns:xlink="http://www.w3.org/1999/xlink"
   xmlns="http://www.w3.org/2000/svg"
   xmlns:svg="http://www.w3.org/2000/svg"
   xmlns:rdf="http://www.w3.org/1999/02/22-rdf-syntax-ns#"
   xmlns:cc="http://creativecommons.org/ns#"
   xmlns:dc="http://purl.org/dc/elements/1.1/"><defs
     id="defs16"><path
       d="M 101.33333,50.666667 C 101.33333,22.686667 78.646667,0 50.666667,0 22.686667,0 0,22.686667 0,50.666667 c 0,15.386666 6.8666667,29.16 17.693333,38.446666 L 11.613333,99.64 V 108 c 0,0.73333 0.6,1.33333 1.333334,1.33333 0.246666,0 0.473333,-0.0667 0.673333,-0.18 L 20.853333,104.98 26.5,95.206667 c 7.18,3.906666 15.413333,6.126663 24.166667,6.126663 8.753333,0 16.986666,-2.219997 24.173333,-6.126663 L 80.486667,104.98 87.72,109.15333 c 0.2,0.11334 0.426667,0.18 0.673333,0.18 0.733334,0 1.333334,-0.6 1.333334,-1.33333 v -8.36 l -6.08,-10.526667 c 10.82,-9.286666 17.686663,-23.06 17.686663,-38.446666 z"
       id="path-1" /><path
       d="M 101.33333,50.666667 C 101.33333,22.686667 78.646667,0 50.666667,0 22.686667,0 0,22.686667 0,50.666667 c 0,15.386666 6.8666667,29.16 17.693333,38.446666 L 11.613333,99.64 V 108 c 0,0.73333 0.6,1.33333 1.333334,1.33333 0.246666,0 0.473333,-0.0667 0.673333,-0.18 L 20.853333,104.98 26.5,95.206667 c 7.18,3.906666 15.413333,6.126663 24.166667,6.126663 8.753333,0 16.986666,-2.219997 24.173333,-6.126663 L 80.486667,104.98 87.72,109.15333 c 0.2,0.11334 0.426667,0.18 0.673333,0.18 0.733334,0 1.333334,-0.6 1.333334,-1.33333 v -8.36 l -6.08,-10.526667 c 10.82,-9.286666 17.686663,-23.06 17.686663,-38.446666 z"
       id="path-3" /><path
       d="M 101.33333,50.666667 C 101.33333,22.686667 78.646667,0 50.666667,0 22.686667,0 0,22.686667 0,50.666667 c 0,15.386666 6.8666667,29.16 17.693333,38.446666 L 11.613333,99.64 V 108 c 0,0.73333 0.6,1.33333 1.333334,1.33333 0.246666,0 0.473333,-0.0667 0.673333,-0.18 L 20.853333,104.98 26.5,95.206667 c 7.18,3.906666 15.413333,6.126663 24.166667,6.126663 8.753333,0 16.986666,-2.219997 24.173333,-6.126663 L 80.486667,104.98 87.72,109.15333 c 0.2,0.11334 0.426667,0.18 0.673333,0.18 0.733334,0 1.333334,-0.6 1.333334,-1.33333 v -8.36 l -6.08,-10.526667 c 10.82,-9.286666 17.686663,-23.06 17.686663,-38.446666 z"
       id="path-5" /><path
       d="M 101.33333,50.666667 C 101.33333,22.686667 78.646667,0 50.666667,0 22.686667,0 0,22.686667 0,50.666667 c 0,15.386666 6.8666667,29.16 17.693333,38.446666 L 11.613333,99.64 V 108 c 0,0.73333 0.6,1.33333 1.333334,1.33333 0.246666,0 0.473333,-0.0667 0.673333,-0.18 L 20.853333,104.98 26.5,95.206667 c 7.18,3.906666 15.413333,6.126663 24.166667,6.126663 8.753333,0 16.986666,-2.219997 24.173333,-6.126663 L 80.486667,104.98 87.72,109.15333 c 0.2,0.11334 0.426667,0.18 0.673333,0.18 0.733334,0 1.333334,-0.6 1.333334,-1.33333 v -8.36 l -6.08,-10.526667 c 10.82,-9.286666 17.686663,-23.06 17.686663,-38.446666 z"
       id="path-7" /><path
       d="M 101.33333,50.666667 C 101.33333,22.686667 78.646667,0 50.666667,0 22.686667,0 0,22.686667 0,50.666667 c 0,15.386666 6.8666667,29.16 17.693333,38.446666 L 11.613333,99.64 V 108 c 0,0.73333 0.6,1.33333 1.333334,1.33333 0.246666,0 0.473333,-0.0667 0.673333,-0.18 L 20.853333,104.98 26.5,95.206667 c 7.18,3.906666 15.413333,6.126663 24.166667,6.126663 8.753333,0 16.986666,-2.219997 24.173333,-6.126663 L 80.486667,104.98 87.72,109.15333 c 0.2,0.11334 0.426667,0.18 0.673333,0.18 0.733334,0 1.333334,-0.6 1.333334,-1.33333 v -8.36 l -6.08,-10.526667 c 10.82,-9.286666 17.686663,-23.06 17.686663,-38.446666 z"
       id="path-9" /><path
       d="M 101.33333,50.666667 C 101.33333,22.686667 78.646667,0 50.666667,0 22.686667,0 0,22.686667 0,50.666667 c 0,15.386666 6.8666667,29.16 17.693333,38.446666 L 11.613333,99.64 V 108 c 0,0.73333 0.6,1.33333 1.333334,1.33333 0.246666,0 0.473333,-0.0667 0.673333,-0.18 L 20.853333,104.98 26.5,95.206667 c 7.18,3.906666 15.413333,6.126663 24.166667,6.126663 8.753333,0 16.986666,-2.219997 24.173333,-6.126663 L 80.486667,104.98 87.72,109.15333 c 0.2,0.11334 0.426667,0.18 0.673333,0.18 0.733334,0 1.333334,-0.6 1.333334,-1.33333 v -8.36 l -6.08,-10.526667 c 10.82,-9.286666 17.686663,-23.06 17.686663,-38.446666 z"
       id="path-11" /><path
       d="M 101.33333,50.666667 C 101.33333,22.686667 78.646667,0 50.666667,0 22.686667,0 0,22.686667 0,50.666667 c 0,15.386666 6.8666667,29.16 17.693333,38.446666 L 11.613333,99.64 V 108 c 0,0.73333 0.6,1.33333 1.333334,1.33333 0.246666,0 0.473333,-0.0667 0.673333,-0.18 L 20.853333,104.98 26.5,95.206667 c 7.18,3.906666 15.413333,6.126663 24.166667,6.126663 8.753333,0 16.986666,-2.219997 24.173333,-6.126663 L 80.486667,104.98 87.72,109.15333 c 0.2,0.11334 0.426667,0.18 0.673333,0.18 0.733334,0 1.333334,-0.6 1.333334,-1.33333 v -8.36 l -6.08,-10.526667 c 10.82,-9.286666 17.686663,-23.06 17.686663,-38.446666 z"
       id="path-13" /><linearGradient
       x1="39.404789"
       y1="65.114182"
       x2="87.249611"
       y2="92.593346"
       id="linearGradient-15"
       gradientTransform="scale(0.98734641,1.0128158)"
       gradientUnits="userSpaceOnUse"><stop
         stop-color="#263238"
         stop-opacity="0.2"
         offset="0%"
         id="stop13" /><stop
         stop-color="#263238"
         stop-opacity="0.02"
         offset="100%"
         id="stop15" /></linearGradient><path
       d="M 101.33333,50.666667 C 101.33333,22.686667 78.646667,0 50.666667,0 22.686667,0 0,22.686667 0,50.666667 c 0,15.386666 6.8666667,29.16 17.693333,38.446666 L 11.613333,99.64 V 108 c 0,0.73333 0.6,1.33333 1.333334,1.33333 0.246666,0 0.473333,-0.0667 0.673333,-0.18 L 20.853333,104.98 26.5,95.206667 c 7.18,3.906666 15.413333,6.126663 24.166667,6.126663 8.753333,0 16.986666,-2.219997 24.173333,-6.126663 L 80.486667,104.98 87.72,109.15333 c 0.2,0.11334 0.426667,0.18 0.673333,0.18 0.733334,0 1.333334,-0.6 1.333334,-1.33333 v -8.36 l -6.08,-10.526667 c 10.82,-9.286666 17.686663,-23.06 17.686663,-38.446666 z"
       id="path-18" /><path
       d="M 101.33333,50.666667 C 101.33333,22.686667 78.646667,0 50.666667,0 22.686667,0 0,22.686667 0,50.666667 c 0,15.386666 6.8666667,29.16 17.693333,38.446666 L 11.613333,99.64 V 108 c 0,0.73333 0.6,1.33333 1.333334,1.33333 0.246666,0 0.473333,-0.0667 0.673333,-0.18 L 20.853333,104.98 26.5,95.206667 c 7.18,3.906666 15.413333,6.126663 24.166667,6.126663 8.753333,0 16.986666,-2.219997 24.173333,-6.126663 L 80.486667,104.98 87.72,109.15333 c 0.2,0.11334 0.426667,0.18 0.673333,0.18 0.733334,0 1.333334,-0.6 1.333334,-1.33333 v -8.36 l -6.08,-10.526667 c 10.82,-9.286666 17.686663,-23.06 17.686663,-38.446666 z"
       id="path-20" /><path
       d="M 101.33333,50.666667 C 101.33333,22.686667 78.646667,0 50.666667,0 22.686667,0 0,22.686667 0,50.666667 c 0,15.386666 6.8666667,29.16 17.693333,38.446666 L 11.613333,99.64 V 108 c 0,0.73333 0.6,1.33333 1.333334,1.33333 0.246666,0 0.473333,-0.0667 0.673333,-0.18 L 20.853333,104.98 26.5,95.206667 c 7.18,3.906666 15.413333,6.126663 24.166667,6.126663 8.753333,0 16.986666,-2.219997 24.173333,-6.126663 L 80.486667,104.98 87.72,109.15333 c 0.2,0.11334 0.426667,0.18 0.673333,0.18 0.733334,0 1.333334,-0.6 1.333334,-1.33333 v -8.36 l -6.08,-10.526667 c 10.82,-9.286666 17.686663,-23.06 17.686663,-38.446666 z"
       id="path-22" /><path
       d="M 101.33333,50.666667 C 101.33333,22.686667 78.646667,0 50.666667,0 22.686667,0 0,22.686667 0,50.666667 c 0,15.386666 6.8666667,29.16 17.693333,38.446666 L 11.613333,99.64 V 108 c 0,0.73333 0.6,1.33333 1.333334,1.33333 0.246666,0 0.473333,-0.0667 0.673333,-0.18 L 20.853333,104.98 26.5,95.206667 c 7.18,3.906666 15.413333,6.126663 24.166667,6.126663 8.753333,0 16.986666,-2.219997 24.173333,-6.126663 L 80.486667,104.98 87.72,109.15333 c 0.2,0.11334 0.426667,0.18 0.673333,0.18 0.733334,0 1.333334,-0.6 1.333334,-1.33333 v -8.36 l -6.08,-10.526667 c 10.82,-9.286666 17.686663,-23.06 17.686663,-38.446666 z"
       id="path-24" /><path
       d="M 101.33333,50.666667 C 101.33333,22.686667 78.646667,0 50.666667,0 22.686667,0 0,22.686667 0,50.666667 c 0,15.386666 6.8666667,29.16 17.693333,38.446666 L 11.613333,99.64 V 108 c 0,0.73333 0.6,1.33333 1.333334,1.33333 0.246666,0 0.473333,-0.0667 0.673333,-0.18 L 20.853333,104.98 26.5,95.206667 c 7.18,3.906666 15.413333,6.126663 24.166667,6.126663 8.753333,0 16.986666,-2.219997 24.173333,-6.126663 L 80.486667,104.98 87.72,109.15333 c 0.2,0.11334 0.426667,0.18 0.673333,0.18 0.733334,0 1.333334,-0.6 1.333334,-1.33333 v -8.36 l -6.08,-10.526667 c 10.82,-9.286666 17.686663,-23.06 17.686663,-38.446666 z"
       id="path-26" /><path
       d="M 101.33333,50.666667 C 101.33333,22.686667 78.646667,0 50.666667,0 22.686667,0 0,22.686667 0,50.666667 c 0,15.386666 6.8666667,29.16 17.693333,38.446666 L 11.613333,99.64 V 108 c 0,0.73333 0.6,1.33333 1.333334,1.33333 0.246666,0 0.473333,-0.0667 0.673333,-0.18 L 20.853333,104.98 26.5,95.206667 c 7.18,3.906666 15.413333,6.126663 24.166667,6.126663 8.753333,0 16.986666,-2.219997 24.173333,-6.126663 L 80.486667,104.98 87.72,109.15333 c 0.2,0.11334 0.426667,0.18 0.673333,0.18 0.733334,0 1.333334,-0.6 1.333334,-1.33333 v -8.36 l -6.08,-10.526667 c 10.82,-9.286666 17.686663,-23.06 17.686663,-38.446666 z"
       id="path-28" /><radialGradient
       cx="15.828767"
       cy="14.563382"
       fx="15.828767"
       fy="14.563382"
       r="124.73273"
       gradientTransform="matrix(0.96271972,0,0,1.0387239,152.88977,3.8205887)"
       id="radialGradient-30"
       gradientUnits="userSpaceOnUse"><stop
         stop-color="#FFFFFF"
         stop-opacity="0.1"
         offset="0%"
         id="stop25" /><stop
         stop-color="#FFFFFF"
         stop-opacity="0"
         offset="100%"
         id="stop27" /></radialGradient><radialGradient
       xlink:href="#radialGradient-30"
       id="radialGradient692"
       gradientUnits="userSpaceOnUse"
       gradientTransform="matrix(0.96271972,0,0,1.0387239,84.771709,88.526978)"
       cx="15.828767"
       cy="14.563382"
       fx="15.828767"
       fy="14.563382"
       r="124.73273" /></defs><title
     id="title2">HTML5 Logo Badge</title><metadata
     id="metadata450"><rdf:RDF><cc:Work
         rdf:about=""><dc:title>HTML5 Logo Badge</dc:title></cc:Work></rdf:RDF></metadata><g
     id="g690"
     transform="matrix(1.9736843,0,0,1.9736843,-117.9705,-149.52396)"><g
       id="Clipped"
       transform="translate(85.105049,88.860311)"
       style="fill:none;fill-rule:evenodd;stroke:none;stroke-width:1"><mask
         id="mask-2"
         fill="#ffffff"><use
           xlink:href="#path-1"
           id="use32"
           x="0"
           y="0"
           width="100%"
           height="100%" /></mask><circle
         id="Oval"
         fill="#45ef8a"
         fill-rule="nonzero"
         mask="url(#mask-2)"
         cx="50.666668"
         cy="50.666668"
         r="50.666668" /></g><g
       id="g44"
       transform="translate(85.105049,88.860311)"
       style="fill:none;fill-rule:evenodd;stroke:none;stroke-width:1"><mask
         id="mask-4"
         fill="#ffffff"><use
           xlink:href="#path-3"
           id="use38"
           x="0"
           y="0"
           width="100%"
           height="100%" /></mask><g
         id="g41" /><path
         d="m 50.666667,100.66667 c 27.76,0 50.293333,-22.32667 50.646663,-50.000003 h 0.02 c 0,27.98 -22.686663,50.666663 -50.666663,50.666663 C 22.686667,101.33333 0,78.646667 0,50.666667 H 0.02 C 0.37333333,78.34 22.906667,100.66667 50.666667,100.66667 Z"
         id="Shape"
         fill-opacity="0.2"
         fill="#263238"
         fill-rule="nonzero"
         mask="url(#mask-4)" /></g><g
       id="g53"
       transform="translate(85.105049,88.860311)"
       style="fill:none;fill-rule:evenodd;stroke:none;stroke-width:1"><mask
         id="mask-6"
         fill="#ffffff"><use
           xlink:href="#path-5"
           id="use46"
           x="0"
           y="0"
           width="100%"
           height="100%" /></mask><g
         id="g49" /><path
         d="M 50.666667,0 C 22.686667,0 0,22.686667 0,50.666667 H 101.33333 C 101.33333,22.686667 78.646667,0 50.666667,0 Z"
         id="path51"
         fill="#3ddc84"
         fill-rule="nonzero"
         mask="url(#mask-6)" /></g><g
       id="g62"
       transform="translate(85.105049,88.860311)"
       style="fill:none;fill-rule:evenodd;stroke:none;stroke-width:1"><mask
         id="mask-8"
         fill="#ffffff"><use
           xlink:href="#path-7"
           id="use55"
           x="0"
           y="0"
           width="100%"
           height="100%" /></mask><g
         id="g58" /><circle
         id="circle60"
         fill="#3ddc84"
         fill-rule="nonzero"
         mask="url(#mask-8)"
         cx="50.666668"
         cy="42.666668"
         r="6.6666665" /></g><g
       id="g71"
       transform="translate(85.105049,88.860311)"
       style="fill:none;fill-rule:evenodd;stroke:none;stroke-width:1"><mask
         id="mask-10"
         fill="#ffffff"><use
           xlink:href="#path-9"
           id="use64"
           x="0"
           y="0"
           width="100%"
           height="100%" /></mask><g
         id="g67" /><polygon
         id="polygon69"
         fill-opacity="0.05"
         fill="#263238"
         fill-rule="nonzero"
         mask="url(#mask-10)"
         points="101.33333,50.666667 0,50.666667 0,50 101.33333,50 " /></g><g
       id="g80"
       transform="translate(85.105049,88.860311)"
       style="fill:none;fill-rule:evenodd;stroke:none;stroke-width:1"><mask
         id="mask-12"
         fill="#ffffff"><use
           xlink:href="#path-11"
           id="use73"
           x="0"
           y="0"
           width="100%"
           height="100%" /></mask><g
         id="g76" /><polygon
         id="polygon78"
         fill-opacity="0.05"
         fill="#ffffff"
         fill-rule="nonzero"
         mask="url(#mask-12)"
         points="101.33333,51.333333 0,51.333333 0,50.666667 101.33333,50.666667 " /></g><g
       id="g89"
       transform="translate(85.105049,88.860311)"
       style="fill:none;fill-rule:evenodd;stroke:none;stroke-width:1"><mask
         id="mask-14"
         fill="#ffffff"><use
           xlink:href="#path-13"
           id="use82"
           x="0"
           y="0"
           width="100%"
           height="100%" /></mask><g
         id="g85" /><polygon
         id="polygon87"
         fill="url(#linearGradient-15)"
         fill-rule="nonzero"
         mask="url(#mask-14)"
         points="101.33333,109.33333 101.33333,64 56,18.666667 45.333333,26.666667 39.886667,50.666667 12.946667,109.33333 "
         style="fill:url(#linearGradient-15)" /></g><g
       id="g105"
       transform="translate(85.105049,88.860311)"
       style="fill:none;fill-rule:evenodd;stroke:none;stroke-width:1"><mask
         id="mask-19"
         fill="#ffffff"><use
           xlink:href="#path-18"
           id="use98"
           x="0"
           y="0"
           width="100%"
           height="100%" /></mask><g
         id="g101" /><path
         d="m 50.666667,0.66666667 c 27.76,0 50.293333,22.32666633 50.646663,50.00000033 h 0.02 C 101.33333,22.686667 78.646667,0 50.666667,0 22.686667,0 0,22.686667 0,50.666667 H 0.02 C 0.37333333,22.993333 22.906667,0.66666667 50.666667,0.66666667 Z"
         id="path103"
         fill-opacity="0.2"
         fill="#ffffff"
         fill-rule="nonzero"
         mask="url(#mask-19)" /></g><g
       id="g124"
       transform="translate(85.105049,88.860311)"
       style="fill:none;fill-rule:evenodd;stroke:none;stroke-width:1"><mask
         id="mask-21"
         fill="#ffffff"><use
           xlink:href="#path-20"
           id="use107"
           x="0"
           y="0"
           width="100%"
           height="100%" /></mask><g
         id="g110" /><g
         id="Group"
         mask="url(#mask-21)"><g
           transform="translate(43.333333,45.333333)"
           id="g121"><path
             d="M 18.113333,5.3333333 H 5.7933333 L 37.153333,59.646667 44.386667,63.82 c 0.2,0.113333 0.426666,0.18 0.673333,0.18 0.733333,0 1.333333,-0.6 1.333333,-1.333333 v -8.36 z"
             id="path113"
             fill="#d7effe"
             fill-rule="nonzero" /><path
             d="M 18.113333,5.3333333 H 5.7933333 L 37.153333,59.646667 44.386667,63.82 c 0.2,0.113333 0.426666,0.18 0.673333,0.18 0.733333,0 1.333333,-0.6 1.333333,-1.333333 v -8.36 z"
             id="path115"
             fill="#bdbdbd"
             fill-rule="nonzero"
             opacity="0.3" /><polygon
             id="polygon117"
             fill-opacity="0.2"
             fill="#ffffff"
             fill-rule="nonzero"
             points="46.386667,54.306667 18.113333,5.3333333 17.726667,5.3333333 46.386667,54.973333 " /><path
             d="m 45.053333,63.333333 c -0.246666,0 -0.473333,-0.06667 -0.673333,-0.18 L 37.146667,58.98 6.18,5.3333333 H 5.7933333 L 37.153333,59.646667 44.386667,63.82 c 0.2,0.113333 0.426666,0.18 0.673333,0.18 0.733333,0 1.333333,-0.6 1.333333,-1.333333 V 62 c -0.0067,0.733333 -0.606666,1.333333 -1.34,1.333333 z"
             id="path119"
             fill-opacity="0.1"
             fill="#212121"
             fill-rule="nonzero" /></g></g></g><g
       id="g143"
       transform="translate(85.105049,88.860311)"
       style="fill:none;fill-rule:evenodd;stroke:none;stroke-width:1"><mask
         id="mask-23"
         fill="#ffffff"><use
           xlink:href="#path-22"
           id="use126"
           x="0"
           y="0"
           width="100%"
           height="100%" /></mask><g
         id="g129" /><g
         id="g141"
         mask="url(#mask-23)"><g
           transform="translate(6,45.333333)"
           id="g139"><path
             d="M 71.333333,5.3333333 C 71.333333,20.06 59.393333,32 44.666667,32 c -4.38,0 -8.513334,-1.06 -12.16,-2.933333 L 44.666667,8 l 1.54,-2.6666667 h -12.32 L 5.6066667,54.306667 v 8.36 C 5.6066667,63.4 6.2066667,64 6.94,64 7.1866667,64 7.4133333,63.93333 7.6133333,63.82 l 7.2333337,-4.173333 12.32,-21.333334 c 5.22,2.773334 11.173333,4.353334 17.5,4.353334 C 65.286667,42.666667 82,25.953333 82,5.3333333 Z"
             id="path133"
             fill="#d7effe"
             fill-rule="nonzero" /><path
             d="M 33.886667,5.3333333 5.6066667,54.306667 v 0.666666 L 34.273333,5.3333333 Z M 44.666667,32 c -4.38,0 -8.513334,-1.06 -12.16,-2.933333 v 0.666666 c 3.646666,1.873334 7.78,2.933334 12.16,2.933334 14.726666,0 26.666666,-11.94 26.666666,-26.666667 H 81.98 C 81.986667,5.78 82,5.56 82,5.3333333 H 71.333333 C 71.333333,20.06 59.393333,32 44.666667,32 Z"
             id="path135"
             fill-opacity="0.4"
             fill="#ffffff"
             fill-rule="nonzero" /><path
             d="M 46.206667,5.3333333 H 45.82 L 32.5,28.4 v 0.666667 z m 35.773333,0 C 81.62,25.64 65.06,42 44.666667,42 c -6.326667,0 -12.28,-1.58 -17.5,-4.353333 L 14.846667,58.98 7.6133333,63.153333 c -0.2,0.113334 -0.4266666,0.18 -0.6733333,0.18 -0.7333333,0 -1.3333333,-0.6 -1.3333333,-1.333333 v 0.666667 C 5.6066667,63.4 6.2066667,64 6.94,64 7.1866667,64 7.4133333,63.93333 7.6133333,63.82 l 7.2333337,-4.173333 12.32,-21.333334 c 5.22,2.773334 11.173333,4.353334 17.5,4.353334 C 65.286667,42.666667 82,25.953333 82,5.3333333 Z"
             id="path137"
             fill-opacity="0.1"
             fill="#212121"
             fill-rule="nonzero" /></g></g></g><g
       id="g158"
       transform="translate(85.105049,88.860311)"
       style="fill:none;fill-rule:evenodd;stroke:none;stroke-width:1"><mask
         id="mask-25"
         fill="#ffffff"><use
           xlink:href="#path-24"
           id="use145"
           x="0"
           y="0"
           width="100%"
           height="100%" /></mask><g
         id="g148" /><g
         id="g156"
         mask="url(#mask-25)"><g
           transform="translate(29.333333,13.333333)"
           id="g154"><path
             d="M 33.333333,13.333333 H 26.666667 V 5.3333333 H 16 V 13.333333 H 9.3333333 c -2.2,0 -4,1.8 -4,4 v 20 l 13.1733337,13.16 c 0.726666,0.72 1.72,1.173334 2.826666,1.173334 C 22.44,51.666667 23.44,51.22 24.16,50.493333 l 13.173333,-13.16 v -20 c 0,-2.2 -1.8,-4 -4,-4 z M 21.333333,36 c -3.68,0 -6.666666,-2.986667 -6.666666,-6.666667 0,-3.68 2.986666,-6.666666 6.666666,-6.666666 3.68,0 6.666667,2.986666 6.666667,6.666666 C 28,33.013333 25.013333,36 21.333333,36 Z"
             id="path152"
             fill="#073042"
             fill-rule="nonzero" /></g></g></g><g
       id="g167"
       transform="translate(85.105049,88.860311)"
       style="fill:none;fill-rule:evenodd;stroke:none;stroke-width:1"><mask
         id="mask-27"
         fill="#ffffff"><use
           xlink:href="#path-26"
           id="use160"
           x="0"
           y="0"
           width="100%"
           height="100%" /></mask><g
         id="g163" /><path
         d="M 62.666667,26.666667 H 56 v 0.666666 h 6.666667 c 2.2,0 4,1.8 4,4 v -0.666666 c 0,-2.2 -1.8,-4 -4,-4 z M 56,18.666667 H 45.333333 v 0.666666 H 56 Z m -10.666667,8 h -6.666666 c -2.2,0 -4,1.8 -4,4 v 0.666666 c 0,-2.2 1.8,-4 4,-4 h 6.666666 z m 5.333334,22.666666 C 46.986667,49.333333 44,46.346667 44,42.666667 v 0.666666 C 44,47.013333 46.986667,50 50.666667,50 c 3.68,0 6.666666,-2.986667 6.666666,-6.666667 v -0.666666 c 0,3.68 -2.986666,6.666666 -6.666666,6.666666 z"
         id="path165"
         fill-opacity="0.1"
         fill="#ffffff"
         fill-rule="nonzero"
         mask="url(#mask-27)" /></g><g
       id="g176"
       transform="translate(85.105049,88.860311)"
       style="fill:none;fill-rule:evenodd;stroke:none;stroke-width:1"><mask
         id="mask-29"
         fill="#ffffff"><use
           xlink:href="#path-28"
           id="use169"
           x="0"
           y="0"
           width="100%"
           height="100%" /></mask><g
         id="g172" /><path
         d="m 50.666667,36 c 3.68,0 6.666666,2.986667 6.666666,6.666667 V 42 c 0,-3.68 -2.986666,-6.666667 -6.666666,-6.666667 C 46.986667,35.333333 44,38.32 44,42 v 0.666667 C 44,38.986667 46.986667,36 50.666667,36 Z m 2.826666,27.16 c -0.726666,0.72 -1.72,1.173333 -2.826666,1.173333 C 49.56,64.333333 48.56,63.886667 47.84,63.16 L 34.666667,50 v 0.666667 L 47.84,63.826667 C 48.566667,64.546667 49.56,65 50.666667,65 c 1.106666,0 2.106666,-0.446667 2.826666,-1.173333 l 13.173334,-13.16 V 50 Z"
         id="path174"
         fill-opacity="0.1"
         fill="#212121"
         fill-rule="nonzero"
         mask="url(#mask-29)" /></g><path
       d="m 186.43838,139.52698 c 0,-27.98 -22.68667,-50.666669 -50.66667,-50.666669 -27.98,0 -50.666661,22.686669 -50.666661,50.666669 0,15.38666 6.86666,29.16 17.693331,38.44666 l -6.080001,10.52667 v 8.36 c 0,0.73334 0.6,1.33334 1.33333,1.33334 0.24667,0 0.47334,-0.0667 0.67334,-0.18 l 7.233331,-4.17334 5.64667,-9.77333 c 7.17999,3.90667 15.41333,6.12667 24.16666,6.12667 8.75333,0 16.98667,-2.22 24.17333,-6.12667 l 5.64667,9.77333 7.23333,4.17334 c 0.2,0.11333 0.42667,0.18 0.67334,0.18 0.73333,0 1.33333,-0.6 1.33333,-1.33334 v -8.36 l -6.08,-10.52667 c 10.82,-9.28666 17.68667,-23.06 17.68667,-38.44666 z"
       id="path178"
       fill="url(#radialGradient-30)"
       fill-rule="nonzero"
       style="fill:url(#radialGradient692);stroke:none;stroke-width:1" /></g><path
     id="path1442"
     style="fill:#fb4227;fill-opacity:1;stroke-width:0.288186"
     d="m 374.11952,241.64774 0.5559,0.8379 c 0.30541,0.46104 1.80513,2.7143 3.33333,5.00712 7.05984,10.59197 13.00357,22.68582 16.99334,34.57297 0.77141,2.2983 1.40389,4.01636 1.40598,3.81822 1.4e-4,-0.017 0.11743,-0.027 0.13795,-0.0425 -0.0574,0.0535 -0.0777,0.11339 -0.0569,0.18665 0.13796,0.48528 0.22378,0.92343 0.35505,1.40191 -0.0613,-0.0732 -0.11109,-0.0276 -0.12173,0.23128 -0.0125,0.30378 0.0564,0.47313 0.15215,0.37736 0.0729,-0.073 0.0459,-0.25531 0.0162,-0.41996 0.16794,0.61523 0.30152,1.20058 0.4585,1.80564 -0.0232,0.0437 -0.0449,0.11074 -0.0507,0.2536 -0.0125,0.30378 0.0564,0.47516 0.15215,0.37938 0.0345,-0.0345 -0.004,-0.13368 0.008,-0.19882 0.1585,0.61887 0.32148,1.24473 0.46866,1.85435 -0.0257,0.0396 -0.0465,0.11993 -0.0528,0.27186 -0.0125,0.30377 0.0564,0.47312 0.15216,0.37735 0.0387,-0.0387 -0.002,-0.14726 0.008,-0.22316 0.0843,0.35439 0.19335,0.72968 0.27389,1.08135 -0.0753,-0.1385 -0.1319,-0.0899 -0.14404,0.20491 -0.0125,0.30376 0.0544,0.47314 0.15014,0.37736 0.0838,-0.0838 0.0728,-0.29461 0.0202,-0.48286 0.0786,0.34427 0.19285,0.71714 0.26779,1.05905 -0.0787,-0.15529 -0.13765,-0.10419 -0.15013,0.19881 -0.0125,0.30377 0.0544,0.47516 0.15013,0.37939 0.0828,-0.0828 0.0705,-0.29252 0.0203,-0.47879 0.0989,0.4531 0.17716,0.89564 0.26983,1.34509 -0.0798,-0.16183 -0.13958,-0.11132 -0.15216,0.19478 -0.0125,0.30377 0.0544,0.47516 0.15013,0.37938 0.0842,-0.0842 0.0736,-0.29594 0.0202,-0.48488 0.0928,0.45197 0.1853,0.90436 0.27186,1.35321 -0.081,-0.16788 -0.14148,-0.11419 -0.15419,0.19476 -0.0125,0.30378 0.0544,0.47314 0.15013,0.37737 0.0852,-0.0852 0.076,-0.30001 0.0202,-0.49097 0.19733,1.02733 0.37442,2.04969 0.53966,3.06553 -0.0686,-0.10603 -0.12247,-0.0608 -0.1339,0.21708 -0.0125,0.30375 0.0544,0.47516 0.15013,0.37939 0.0677,-0.0677 0.0368,-0.23945 0.0162,-0.39156 0.19558,1.21728 0.37042,2.43414 0.52141,3.64577 -0.0413,-9.2e-4 -0.075,0.10822 -0.0791,0.42605 -0.006,0.47555 0.055,0.70435 0.1339,0.50923 0.0415,-0.10258 0.006,-0.2886 0.006,-0.45445 0.0847,0.70717 0.16932,1.41744 0.23939,2.1262 -0.0473,-0.0378 -0.0868,0.0648 -0.0914,0.41185 -0.006,0.47552 0.055,0.70435 0.1339,0.50923 0.0343,-0.0847 -0.002,-0.24224 0.005,-0.37532 0.0728,0.77789 0.14727,1.55591 0.20289,2.33921 -0.0139,0.13683 -0.0305,0.28189 -0.0305,0.55386 0,0.63859 0.0468,0.91007 0.10546,0.7101 0.13958,2.35627 0.21532,4.74345 0.211,7.21444 -0.005,2.58434 -0.0819,4.95886 -0.22317,7.23475 -0.0521,-0.12327 -0.0949,0.0276 -0.0974,0.54575 h -0.002 c -8e-4,0.15704 0.0103,0.21893 0.0162,0.33069 -0.0498,0.69536 -0.12613,1.36675 -0.19072,2.04504 -0.0768,-0.17254 -0.13998,-0.0217 -0.13998,0.36317 0,0.25286 0.0309,0.36011 0.0709,0.38952 -0.0768,0.73677 -0.11753,1.5111 -0.21303,2.23577 0.004,-0.14207 0.0436,-0.28563 0,-0.3936 -0.0799,-0.19813 -0.14609,-0.0351 -0.14609,0.36113 0,0.28021 0.0378,0.38401 0.0852,0.38547 -0.0597,0.43783 -0.15426,0.87293 -0.22115,1.30858 -0.002,-0.006 0.002,-0.0115 0,-0.0183 -0.092,-0.2299 -0.16066,-0.16329 -0.17447,0.17243 -0.009,0.22144 0.0312,0.33091 0.0873,0.35911 -0.0636,0.39694 -0.13513,0.79621 -0.20491,1.19293 -0.0897,-0.21629 -0.15683,-0.15159 -0.17042,0.17855 -0.009,0.21344 0.0287,0.3194 0.0812,0.35504 -0.49112,2.68653 -1.075,5.3895 -1.87665,8.28161 -0.92059,3.32124 -2.48627,7.94102 -2.82005,8.31813 -0.41198,0.46547 -13.14345,-7.83265 -24.61151,-16.04181 -1.69682,-1.21464 -3.41834,-2.5301 -5.12478,-3.77765 -0.0615,-0.1066 -0.21665,-0.26334 -0.47069,-0.46258 -0.36094,-0.28305 -0.37088,-0.25782 -0.21303,-0.0425 -0.15408,-0.11293 -0.3084,-0.22762 -0.46256,-0.34085 -0.0493,-0.1058 -0.20317,-0.26625 -0.47677,-0.48082 -0.38197,-0.29957 -0.38724,-0.27115 -0.19071,-0.0104 -1.22168,-0.89965 -2.43763,-1.78769 -3.66201,-2.70238 -0.0635,-0.10649 -0.22038,-0.26222 -0.47068,-0.45851 -0.35801,-0.28076 -0.36978,-0.2558 -0.21708,-0.0466 -0.53725,-0.40244 -1.06928,-0.77969 -1.60682,-1.18484 -0.0387,-0.1043 -0.1927,-0.27108 -0.48083,-0.49705 -0.39425,-0.3092 -0.39903,-0.27941 -0.17854,0.0104 -1.0273,-0.77623 -2.04805,-1.56992 -3.07567,-2.35545 0.003,-0.0136 0.0121,-0.0144 0.0121,-0.0325 0,-0.0598 -0.22779,-0.28762 -0.50517,-0.50515 -0.40016,-0.31384 -0.40281,-0.28352 -0.17042,0.0202 -0.16794,-0.1287 -0.33522,-0.26264 -0.50315,-0.39158 -0.0419,-0.10476 -0.19488,-0.27034 -0.4788,-0.49299 -0.3548,-0.27826 -0.36627,-0.25535 -0.21911,-0.0528 -0.24368,-0.18757 -0.48672,-0.38001 -0.73037,-0.56807 -0.008,-0.0974 -0.16875,-0.27884 -0.49098,-0.53154 -0.39425,-0.3092 -0.39902,-0.27943 -0.17852,0.0103 -0.15718,-0.12162 -0.31354,-0.24543 -0.47069,-0.36722 0,-9.2e-4 0,-9.2e-4 0,-0.002 0,-0.0598 -0.22576,-0.28765 -0.50314,-0.50519 -0.34809,-0.27297 -0.36495,-0.25204 -0.22927,-0.0629 -0.16628,-0.12924 -0.33283,-0.25805 -0.49908,-0.3875 -0.0937,-0.12255 -0.27355,-0.30045 -0.56807,-0.5498 l -0.64922,-0.5478 0.37127,0.43824 c -0.18135,-0.14165 -0.36241,-0.28213 -0.54371,-0.42402 -0.0481,-0.10568 -0.20135,-0.26686 -0.47678,-0.48286 -0.34472,-0.27035 -0.36136,-0.25156 -0.23129,-0.069 -0.24054,-0.18874 -0.48181,-0.37284 -0.72226,-0.56199 -0.0177,-0.0998 -0.17424,-0.27823 -0.48691,-0.52343 -0.38638,-0.30301 -0.38966,-0.27315 -0.18461,-0.002 -0.16893,-0.13323 -0.33834,-0.26221 -0.50721,-0.39563 -0.0724,-0.1199 -0.26309,-0.31139 -0.60459,-0.60053 l -0.64922,-0.5498 0.4362,0.5133 c -0.19463,-0.15423 -0.39179,-0.3 -0.58634,-0.45447 6.2e-4,-0.006 0.006,-0.006 0.006,-0.0142 0,-0.0547 -0.29056,-0.34526 -0.64719,-0.64721 l -0.64922,-0.5498 0.50923,0.60256 c -0.21971,-0.17497 -0.44181,-0.34004 -0.66138,-0.51532 0.006,-0.0949 -0.19814,-0.31475 -0.64112,-0.68979 l -0.64718,-0.54982 0.54778,0.64923 c 0.019,0.0223 0.0218,0.0189 0.0406,0.0406 -0.25135,-0.20114 -0.49545,-0.41117 -0.74661,-0.61269 0.004,-0.0136 0.0142,-0.0134 0.0142,-0.0325 0,-0.0547 -0.2926,-0.34728 -0.64922,-0.64923 l -0.64719,-0.54778 0.48895,0.57618 c -0.21389,-0.17212 -0.42333,-0.349 -0.63705,-0.5214 3e-4,-0.006 0.004,-0.005 0.004,-0.0103 0,-0.0547 -0.2926,-0.34728 -0.64922,-0.64923 l -0.64923,-0.54777 0.40375,0.47474 c -0.28449,-0.23022 -0.56389,-0.46522 -0.84805,-0.69587 0.003,-0.0135 0.0121,-0.0144 0.0121,-0.0324 0,-0.0598 -0.22577,-0.28763 -0.50314,-0.50517 -0.36093,-0.28307 -0.37292,-0.25782 -0.21506,-0.0427 -0.24246,-0.19732 -0.48206,-0.39678 -0.72429,-0.59443 3e-5,-9.2e-4 0.002,-5.8e-4 0.002,-0.002 10e-6,-0.0547 -0.29258,-0.34526 -0.64921,-0.6472 l -0.6472,-0.5498 0.37534,0.44431 c -0.1987,-0.16267 -0.39593,-0.32606 -0.59444,-0.48895 -0.10552,-0.13899 -0.33503,-0.36012 -0.7182,-0.6979 l -0.79124,-0.69792 0.49908,0.56807 c -0.23341,-0.19223 -0.4668,-0.3837 -0.69993,-0.57619 -0.0848,-0.13312 -0.30897,-0.35756 -0.73646,-0.73442 l -0.79326,-0.69793 0.57212,0.6472 c -0.25015,-0.20723 -0.5029,-0.41126 -0.75269,-0.61878 -0.058,-0.12356 -0.28289,-0.355 -0.75472,-0.77095 l -0.79327,-0.69994 0.63299,0.72023 c -0.2641,-0.22014 -0.53364,-0.43487 -0.79732,-0.65532 -0.0255,-0.11063 -0.25725,-0.35078 -0.77298,-0.80543 l -0.79123,-0.69994 0.69791,0.79327 c -0.38749,-0.32495 -0.78819,-0.63816 -1.17468,-0.96369 0.0937,-0.0591 -0.11116,-0.29823 -0.74864,-0.86021 l -0.79326,-0.69791 0.69994,0.79326 c 0.16257,0.18442 0.20308,0.19971 0.33475,0.33475 -0.40361,-0.34057 -0.78643,-0.68746 -1.18888,-1.02859 0.0116,-0.0975 -0.25412,-0.37555 -0.92514,-0.98197 l -0.93731,-0.846 0.84601,0.93528 c 0.0473,0.0524 0.0493,0.0452 0.0954,0.0953 -0.37139,-0.31593 -0.72928,-0.63518 -1.09961,-0.95152 0.003,-0.012 0.0142,-0.009 0.0142,-0.0263 0,-0.0496 -0.42219,-0.46974 -0.93731,-0.93529 l -0.93529,-0.84804 0.82979,0.91905 c -0.33862,-0.29038 -0.67066,-0.5817 -1.00832,-0.87239 -0.0503,-0.12598 -0.31128,-0.3946 -0.90282,-0.9292 l -0.93731,-0.846 0.7608,0.84196 c -0.45387,-0.39238 -0.90731,-0.78391 -1.3593,-1.17672 -0.31853,-0.38542 -1.74723,-1.7056 -8.48652,-7.76426 -9.33053,-8.38944 -11.60796,-10.53113 -24.60355,-23.16025 l -3.71678,-3.61331 2.54007,3.74721 c 4.32128,6.37495 17.00008,23.77565 17.32403,23.77565 0.0713,0 -0.2691,-0.57359 -0.73646,-1.25786 l 0.0223,0.0325 c 0.46817,0.68414 0.91346,1.28433 1.12599,1.53784 -0.0448,-0.0135 -0.0907,-0.0433 -0.13187,0 -0.0627,0.0661 0.92052,1.449 2.183,3.07366 1.26246,1.62466 2.35708,2.95395 2.43457,2.95395 0.0611,0 -0.8042,-1.18248 -1.65145,-2.32705 0.46547,0.6115 0.51352,0.65787 1.03875,1.35322 0.43758,0.57929 1.03544,1.30998 1.49524,1.91113 -0.0787,-0.1035 -0.201,-0.23069 -0.41388,-0.39764 -0.45708,-0.35846 -0.46802,-0.34752 -0.10956,0.10959 0.21753,0.27738 0.44534,0.50314 0.50517,0.50314 0.10566,0 0.12268,-0.0525 0.0791,-0.13796 1.60639,2.09927 3.39271,4.36536 5.21405,6.66466 -0.002,-0.056 -0.28965,-0.34417 -0.64516,-0.64518 l -0.64922,-0.54979 0.54981,0.64922 c 0.51592,0.60934 0.7466,0.77839 0.7466,0.54777 0.3593,0.45358 0.66291,0.85565 1.02861,1.31467 -0.0844,-0.11132 -0.23602,-0.27806 -0.52344,-0.52141 l -0.64922,-0.54981 0.54981,0.64923 c 0.4864,0.57448 0.71331,0.74415 0.73849,0.57009 0.31248,0.39199 0.5598,0.72657 0.87644,1.12194 -0.1055,-0.1066 -0.17534,-0.19197 -0.36315,-0.35098 l -0.64719,-0.54981 0.54778,0.64921 c 0.30194,0.35664 0.59458,0.64923 0.64922,0.64923 0.0552,0 0.0846,-0.0153 0.0933,-0.0425 0.28783,0.35886 0.53692,0.67963 0.82775,1.04077 -0.10121,-0.0989 -0.15418,-0.16721 -0.31852,-0.30635 l -0.64719,-0.54779 0.54778,0.6472 c 0.30194,0.35663 0.59458,0.64922 0.64922,0.64922 0.0567,0 0.0877,-0.0158 0.0954,-0.0446 2.6e-4,3.3e-4 0.002,-3.2e-4 0.002,0 0.31818,0.39454 0.66069,0.79832 0.98194,1.19496 -0.10541,-0.11911 -0.23089,-0.24831 -0.47677,-0.45647 l -0.64719,-0.5498 0.54778,0.6492 c 0.30194,0.35664 0.59458,0.64719 0.64922,0.64719 0.0904,0 0.1,-0.0474 0.0649,-0.12172 0.40046,0.49417 0.81892,0.99059 1.22337,1.48712 -0.12877,-0.13708 -0.25894,-0.27393 -0.53966,-0.52141 l -0.79327,-0.69993 0.69791,0.79326 c 0.38427,0.43588 0.74164,0.79123 0.79327,0.79123 0.0696,0 0.0854,-0.0315 0.073,-0.0812 0.38479,0.47195 0.7749,0.93891 1.16251,1.41205 -0.0107,-0.0623 -0.28711,-0.34076 -0.63705,-0.63704 l -0.64922,-0.54981 0.54981,0.64922 c 0.5137,0.60673 0.74664,0.77803 0.74863,0.55185 1.3099,1.59889 2.59975,3.18022 3.92575,4.77379 -0.11479,-0.14064 -0.32679,-0.34878 -0.68371,-0.66343 l -0.79326,-0.69993 0.69791,0.79326 c 0.38425,0.4359 0.74164,0.79123 0.79326,0.79123 0.10694,0 0.11244,-0.0564 0.0203,-0.18056 0.44034,0.52912 0.86425,1.05816 1.30453,1.5845 -0.10712,-0.116 -0.21158,-0.2301 -0.43822,-0.42199 l -0.64922,-0.54778 0.5498,0.64719 c 0.30196,0.35663 0.59245,0.64922 0.6472,0.64922 0.0826,0 0.095,-0.0417 0.073,-0.1035 0.39922,0.47692 0.7824,0.95664 1.18077,1.43032 -0.1053,-0.10615 -0.17491,-0.18927 -0.36113,-0.34694 l -0.64922,-0.54778 0.5498,0.6472 c 0.30196,0.35663 0.59448,0.64922 0.64922,0.64922 0.0776,0 0.0917,-0.0368 0.0771,-0.0913 1.74484,2.07243 3.35521,3.89822 5.04566,5.86327 -0.12264,-0.14074 -0.30205,-0.31844 -0.62893,-0.60662 l -0.79327,-0.69791 0.69994,0.79125 c 0.38427,0.43587 0.73961,0.79326 0.79124,0.79326 0.098,0 0.10255,-0.0553 0.0345,-0.15824 0.55934,0.64988 1.12263,1.30852 1.67174,1.94157 -0.11656,-0.14081 -0.32453,-0.34378 -0.6756,-0.65329 l -0.79124,-0.69791 0.69792,0.79327 c 0.38426,0.43589 0.74164,0.79123 0.79327,0.79123 0.10632,0 0.11071,-0.0559 0.0202,-0.17853 0.61873,0.71315 1.28189,1.50076 1.88476,2.18909 -0.16705,-0.16578 -0.19868,-0.22214 -0.44228,-0.44228 l -0.93731,-0.84805 0.84601,0.93732 c 0.67571,0.74766 0.93416,0.97783 0.99817,0.8947 0.44055,0.50174 0.91902,1.0679 1.34917,1.55408 -0.0449,-0.0402 -0.0454,-0.0493 -0.0954,-0.0933 l -0.79326,-0.69792 0.69993,0.79327 c 0.38426,0.43587 0.73962,0.79123 0.79124,0.79123 0.0466,0 0.0646,-0.0171 0.0751,-0.0386 0.65898,0.74146 1.28044,1.42861 1.90911,2.12621 -0.10214,-0.0962 -0.11031,-0.11281 -0.23331,-0.22723 l -1.22338,-1.14019 1.13817,1.22541 c 0.62656,0.67363 1.17835,1.2254 1.2254,1.2254 0.029,0 0.0261,-0.0203 0.0386,-0.0304 0.74131,0.81629 1.42148,1.5509 2.10793,2.29053 -0.12513,-0.11913 -0.1168,-0.12839 -0.25968,-0.2597 l -1.08136,-0.99209 0.99412,1.08137 c 0.83448,0.90807 1.09972,1.14295 1.14627,1.02252 0.66932,0.71374 1.40252,1.51643 2.00447,2.13836 0.67224,0.69455 1.13038,1.22957 1.4222,1.61087 -0.19462,-0.25355 -0.47818,-0.56744 -0.81963,-0.89267 -0.70154,-0.6682 -0.90792,-0.80464 -0.46055,-0.30433 0.44738,0.50033 0.83196,1.01868 0.85616,1.15238 0.0242,0.13374 0.14081,0.2101 0.25969,0.17041 0.10051,-0.0335 0.17289,0.0616 0.19679,0.19883 -0.83599,-0.29732 -6.69631,-3.94898 -11.93956,-7.46198 -3.43538,-2.30171 -7.32716,-5.00653 -11.39787,-7.88192 -0.0143,-0.099 -0.17279,-0.27754 -0.48894,-0.52548 -0.44276,-0.34722 -0.45055,-0.32845 -0.12579,0.0873 -0.45773,-0.32399 -0.94298,-0.6771 -1.40596,-1.0063 -0.0183,-0.10005 -0.17499,-0.27678 -0.48692,-0.52141 -0.43896,-0.34425 -0.44388,-0.32388 -0.12781,0.0812 -1.13168,-0.80624 -2.26418,-1.61629 -3.42058,-2.44877 -0.0248,-0.10155 -0.18004,-0.27625 -0.48489,-0.51532 -0.43213,-0.3389 -0.43858,-0.31523 -0.13795,0.0709 -1.90416,-1.37328 -3.77146,-2.73014 -5.71314,-4.15299 -0.0119,-0.0983 -0.17031,-0.27758 -0.48894,-0.52748 -0.42833,-0.33591 -0.43417,-0.31301 -0.14202,0.0629 -0.17343,-0.12729 -0.34581,-0.2579 -0.51938,-0.38548 0.002,-0.0944 -0.16056,-0.28096 -0.493,-0.54168 -0.44564,-0.34951 -0.45116,-0.33463 -0.1197,0.0892 -1.62372,-1.19543 -3.24018,-2.38274 -4.86306,-3.59303 -0.008,-0.0974 -0.17077,-0.27883 -0.493,-0.53154 -0.42903,-0.33647 -0.43168,-0.3129 -0.13796,0.065 -0.55647,-0.41569 -1.11305,-0.81734 -1.66769,-1.23352 0.0227,-0.0882 -0.14868,-0.28515 -0.49908,-0.55996 -0.44267,-0.34716 -0.45035,-0.33021 -0.12579,0.0852 -0.18216,-0.13692 -0.3517,-0.27087 -0.53358,-0.40778 0.002,-0.0944 -0.16056,-0.283 -0.493,-0.54372 -0.42217,-0.33109 -0.42675,-0.30476 -0.1481,0.0547 -0.27855,-0.21007 -0.54191,-0.41493 -0.81964,-0.62487 0.0796,-0.0679 -0.0801,-0.27434 -0.47271,-0.58227 -0.45709,-0.35847 -0.46802,-0.34753 -0.10956,0.10959 0.0534,0.0681 0.0718,0.0644 0.12375,0.12377 -0.23084,-0.17472 -0.4515,-0.34684 -0.68168,-0.52141 0.0585,-0.0758 -0.10889,-0.27972 -0.48691,-0.57619 -0.45708,-0.35845 -0.466,-0.34752 -0.10753,0.1096 0.0263,0.0336 0.0346,0.0291 0.0609,0.0608 -0.20453,-0.15535 -0.40471,-0.3074 -0.60864,-0.46257 0.0408,-0.0821 -0.13226,-0.28601 -0.49706,-0.57212 -0.45708,-0.35846 -0.46599,-0.34752 -0.10753,0.10959 -0.18667,-0.14229 -0.37182,-0.28397 -0.55792,-0.42605 0.005,-0.0163 0.0183,-0.0199 0.0183,-0.0446 0,-0.0598 -0.2278,-0.2856 -0.50518,-0.50313 -0.43797,-0.34349 -0.44365,-0.32521 -0.12984,0.0771 -0.17781,-0.13601 -0.35838,-0.27201 -0.53561,-0.40779 -0.0167,-0.10327 -0.21251,-0.31523 -0.63096,-0.66951 l -0.64922,-0.54779 0.54981,0.6472 c 0.0264,0.0312 0.0307,0.0268 0.0568,0.0568 -0.25728,-0.19752 -0.5252,-0.39749 -0.78109,-0.59445 0.0144,-0.0178 0.0304,-0.0329 0.0304,-0.0751 0,-0.0598 -0.22577,-0.28763 -0.50314,-0.50517 -0.45709,-0.35847 -0.46802,-0.34753 -0.10957,0.10959 0.0384,0.0489 0.0559,0.0533 0.0913,0.0953 -0.21133,-0.16289 -0.43689,-0.33056 -0.64719,-0.49299 0.0451,-0.0799 -0.15401,-0.30456 -0.63299,-0.71009 l -0.64719,-0.5498 0.54778,0.64921 c 0.10096,0.11923 0.12687,0.12083 0.21708,0.21708 -0.28767,-0.22256 -0.60309,-0.45609 -0.88862,-0.67762 -0.0143,-0.0115 -0.0485,-0.0376 -0.0629,-0.0487 0.0272,-0.012 0.0426,-0.0452 0.0426,-0.1035 0,-0.0598 -0.22778,-0.28764 -0.50517,-0.50518 -0.45708,-0.35846 -0.466,-0.34752 -0.10753,0.10959 0.0778,0.0992 0.11962,0.12205 0.18463,0.19274 -0.18115,-0.14093 -0.55178,-0.43867 -0.74864,-0.59241 0.0823,-0.0814 -0.29472,-0.43796 -1.20105,-1.11585 l -1.2254,-0.91702 1.08541,0.97383 c -0.36825,-0.28906 -0.84396,-0.67114 -1.24366,-0.98601 0.003,-0.0135 0.0142,-0.0133 0.0142,-0.0324 0,-0.0547 -0.29057,-0.34727 -0.64719,-0.64922 l -0.64922,-0.54779 0.54981,0.6472 c 0.007,0.008 0.009,0.008 0.0162,0.0162 -0.23748,-0.18739 -0.46718,-0.37041 -0.71212,-0.564 0.0209,-0.0894 -0.19017,-0.31707 -0.64719,-0.704 l -0.64719,-0.54777 0.54778,0.64718 c 0.034,0.0401 0.0397,0.0349 0.073,0.0731 -0.27408,-0.2169 -0.49892,-0.39272 -0.77907,-0.61473 0.0421,-0.0811 -0.15866,-0.30677 -0.63501,-0.71008 l -0.64719,-0.54981 0.54777,0.64921 c 0.0632,0.0746 0.0757,0.069 0.13593,0.13593 -0.38448,-0.30502 -0.66493,-0.52389 -1.05498,-0.83384 0.29009,0.19342 0.34797,0.19185 -0.073,-0.211 -1.08063,-1.034 -11.51426,-9.3544 -11.4993,-9.17023 0.004,0.0535 1.78709,1.49243 2.72469,2.28039 -0.85853,-0.70023 -2.86897,-2.3033 -2.98235,-2.41632 -0.27893,-0.27802 -0.49941,-0.46055 -0.73038,-0.66139 0.28818,0.20662 0.68371,0.50941 0.68371,0.46257 0,-0.0759 -2.04406,-1.862 -4.54048,-3.97039 -2.49642,-2.10837 -6.2516,-5.35959 -8.3445,-7.22459 -2.0929,-1.86502 -3.877,-3.39217 -3.96633,-3.39217 -0.22347,0 4.6981,7.34607 7.04809,10.51938 1.05641,1.42653 2.75497,3.50197 3.77359,4.61149 1.01862,1.10953 2.92872,3.41073 4.24631,5.11464 1.31758,1.70389 2.45894,3.098 2.53601,3.098 0.11246,0 -0.91748,-1.37396 -2.11808,-2.91339 0.98669,1.28106 2.099,2.67071 3.14466,4.00286 -0.10733,-0.11316 -0.19911,-0.21551 -0.41185,-0.39563 l -0.64719,-0.5498 0.54778,0.64923 c 0.30194,0.35662 0.59458,0.64718 0.64922,0.64718 0.0661,0 0.0899,-0.0236 0.0893,-0.0629 0.283,0.36008 0.5613,0.7162 0.84804,1.07934 -0.10306,-0.10189 -0.16187,-0.1762 -0.33475,-0.32259 l -0.64719,-0.5498 0.54778,0.64922 c 0.30194,0.35664 0.59458,0.64922 0.64922,0.64922 0.0528,0 0.0789,-0.0156 0.0893,-0.0406 0.25924,0.32775 0.50078,0.64181 0.76283,0.97177 -0.0897,-0.084 -0.11923,-0.13077 -0.24752,-0.23939 l -0.64922,-0.54778 0.54981,0.6472 c 0.30195,0.35663 0.59256,0.64922 0.64719,0.64922 0.0435,0 0.0583,-0.0177 0.073,-0.0345 0.23656,0.2973 0.4471,0.57354 0.68574,0.8724 -0.0922,-0.0988 -0.13381,-0.1693 -0.29823,-0.29824 -0.45708,-0.35846 -0.46803,-0.34955 -0.10956,0.10753 0.34459,0.43941 0.56244,0.58921 0.5985,0.43213 0.32245,0.40342 0.63772,0.79717 0.96368,1.20308 -0.0651,-0.0582 -0.076,-0.0801 -0.15622,-0.1481 l -0.64922,-0.54979 0.54981,0.64922 c 0.30195,0.35662 0.59458,0.64717 0.64922,0.64717 0.0396,0 0.0512,-0.0165 0.067,-0.0305 0.25877,0.32156 0.53457,0.65096 0.7953,0.97383 -0.0919,-0.0865 -0.12576,-0.13615 -0.25969,-0.24955 l -0.64719,-0.5498 0.54778,0.64921 c 0.30194,0.35663 0.59458,0.64923 0.64922,0.64923 0.0503,0 0.0735,-0.0158 0.0852,-0.0385 0.28956,0.35795 0.58675,0.72008 0.87847,1.07932 -0.10536,-0.10626 -0.17438,-0.19085 -0.36113,-0.34895 l -0.64719,-0.54779 0.54778,0.64719 c 0.30195,0.35662 0.59458,0.64922 0.64922,0.64922 0.0627,0 0.0906,-0.0215 0.0933,-0.0568 0.32326,0.39757 0.64621,0.79417 0.9718,1.19292 -0.10627,-0.11802 -0.22214,-0.24246 -0.46054,-0.44429 l -0.64922,-0.54779 0.54981,0.64719 c 0.30194,0.35662 0.59255,0.64922 0.64719,0.64922 0.0861,0 0.0967,-0.0442 0.069,-0.11155 0.38213,0.46772 0.75528,0.92902 1.14019,1.39785 -0.10109,-0.0987 -0.15264,-0.16559 -0.31649,-0.30431 l -0.64922,-0.54981 0.54981,0.64922 c 0.30194,0.35663 0.59255,0.64719 0.64719,0.64719 0.0552,0 0.0846,-0.0153 0.0933,-0.0427 0.33077,0.40233 0.64541,0.79627 0.97789,1.19904 -0.11244,-0.10707 -0.15458,-0.16435 -0.32259,-0.31245 l -0.79326,-0.69994 0.69994,0.79326 c 0.38425,0.4359 0.73961,0.79327 0.79123,0.79327 0.0415,0 0.054,-0.0176 0.067,-0.0345 0.29196,0.35301 0.57737,0.6979 0.87037,1.05093 -0.10338,-0.10235 -0.16433,-0.17688 -0.33882,-0.32461 l -0.64719,-0.54779 0.54778,0.6472 c 0.30195,0.35664 0.59458,0.64921 0.64922,0.64921 0.0672,0 0.0891,-0.0262 0.0872,-0.0669 0.40514,0.48754 0.81674,0.96365 1.22337,1.4506 -0.10735,-0.11397 -0.20347,-0.21841 -0.41996,-0.40171 l -0.64719,-0.5498 0.54778,0.64922 c 0.30194,0.35664 0.59458,0.64719 0.64922,0.64719 0.0826,0 0.095,-0.0417 0.073,-0.1035 0.43775,0.52377 0.87579,1.03983 1.31467,1.56218 -0.10375,-0.1204 -0.23855,-0.25962 -0.49503,-0.47676 l -0.64922,-0.54981 0.54981,0.64922 c 0.30194,0.35661 0.59255,0.64717 0.64719,0.64717 0.0984,0 0.10739,-0.0514 0.0568,-0.13997 0.4705,0.55973 0.93894,1.11651 1.41002,1.67376 -0.0931,-0.12255 -0.27801,-0.30109 -0.57415,-0.55182 l -0.64922,-0.54982 0.54981,0.64922 c 0.30194,0.35664 0.59458,0.64922 0.64922,0.64922 0.11279,0 0.12606,-0.0574 0.0426,-0.17448 0.51789,0.61259 1.03228,1.23161 1.55001,1.84015 -0.10734,-0.11328 -0.20044,-0.21696 -0.41388,-0.39766 l -0.64719,-0.54778 0.54778,0.64719 c 0.30194,0.35663 0.59458,0.64923 0.64922,0.64923 0.0818,0 0.0939,-0.0407 0.073,-0.10143 0.48839,0.57353 0.97135,1.15359 1.45872,1.72245 -0.0848,-0.0779 -0.0989,-0.10557 -0.20694,-0.20085 l -0.79327,-0.69993 0.69791,0.79326 c 0.38427,0.43589 0.74164,0.79124 0.79327,0.79124 0.0453,0 0.0598,-0.0183 0.071,-0.0385 0.45071,0.52481 0.886,1.012 1.33496,1.53175 -0.12047,-0.11709 -0.18048,-0.18934 -0.37533,-0.36113 l -0.79327,-0.69994 0.69994,0.79326 c 0.38427,0.43589 0.73961,0.79328 0.79124,0.79328 0.0565,0 0.0883,-0.0146 0.0913,-0.0466 0.49873,0.57633 0.98953,1.13537 1.48509,1.7042 -0.12858,-0.13746 -0.26181,-0.27716 -0.54575,-0.52748 l -0.79327,-0.69792 0.69994,0.79125 c 0.38426,0.43588 0.73961,0.79326 0.79124,0.79326 0.086,0 0.0914,-0.0481 0.0507,-0.12579 0.62986,0.72232 1.26581,1.46063 1.88883,2.1688 -0.17042,-0.17085 -0.21475,-0.23996 -0.47678,-0.47676 l -0.93528,-0.84602 0.84602,0.93732 c 0.69391,0.76781 0.94782,0.99035 1.00223,0.88658 0.42708,0.48442 0.87546,1.01449 1.29844,1.49118 0.0663,0.0748 0.13655,0.14646 0.20288,0.22113 -0.13431,-0.12924 -0.18867,-0.19642 -0.39562,-0.38344 l -0.93731,-0.84602 0.84602,0.93529 c 0.46553,0.51514 0.88776,0.93732 0.93731,0.93732 0.0629,0 0.0828,-0.026 0.073,-0.0711 0.80228,0.90051 1.63578,1.7782 2.44472,2.67398 -0.15645,-0.17857 -0.43423,-0.4468 -0.915,-0.88863 l -1.07933,-0.99412 0.99209,1.08136 c 0.54623,0.59439 1.03316,1.07933 1.08136,1.07933 0.1052,0 0.10431,-0.062 -0.0264,-0.22113 2.04464,2.26343 4.09358,4.5237 6.17976,6.75593 -0.18571,-0.20056 -0.44924,-0.46002 -0.95151,-0.92717 l -1.22337,-1.14019 1.13816,1.2254 c 0.62655,0.67364 1.17835,1.2254 1.2254,1.2254 0.0943,0 0.0836,-0.066 -0.0243,-0.2049 11.13932,11.9085 22.8592,23.3566 35.06194,34.25649 l -0.2252,-0.19071 0.54778,0.64922 c 0.51591,0.60934 0.74864,0.7784 0.74864,0.54779 0,-0.0282 -0.21104,-0.20985 -0.33476,-0.33274 0.35545,0.31633 0.69872,0.64628 1.05498,0.96167 0.2572,0.2277 0.27035,0.2246 0.48692,0.41387 0.0228,0.0468 0.0568,0.10339 0.19679,0.282 0.21753,0.27739 0.44534,0.50518 0.50518,0.50518 0.0957,0 0.11239,-0.049 0.0852,-0.1197 1.01163,0.85302 1.43074,1.14975 0.59647,0.26172 l -0.3307,-0.35302 0.63705,0.57821 c 1.53432,1.39031 2.90644,2.54255 4.88132,4.15298 -0.32675,-0.25151 -0.3556,-0.24712 -0.0345,0.1623 0.21755,0.27738 0.44534,0.50315 0.50517,0.50315 0.22274,0 0.0742,-0.22075 -0.33881,-0.55791 0.33914,0.2762 0.76859,0.62394 1.17671,0.95354 -0.14805,-0.10051 -0.1584,-0.0726 0.0974,0.2536 0.21756,0.27738 0.44535,0.50517 0.50518,0.50517 0.19696,0 0.0675,-0.19166 -0.23736,-0.46257 0.65736,0.5299 0.91368,0.74782 1.78737,1.44858 2.93231,2.35184 5.50411,4.43586 5.71516,4.63178 0.31138,0.28904 -0.20595,0.68422 -2.73889,2.09373 -8.65147,4.81429 -17.70228,8.03447 -27.57561,9.76872 0.0202,-0.0234 0.0554,-0.0441 0.0244,-0.0751 -0.0958,-0.0958 -0.3438,-0.10753 -0.55183,-0.0244 -0.20116,0.0805 -0.13543,0.1367 0.0994,0.16027 -0.42335,0.0723 -0.86189,0.1197 -1.2883,0.18665 -0.003,-0.013 0.0265,-0.0202 0.0121,-0.0345 -0.0958,-0.0958 -0.3438,-0.10557 -0.55183,-0.0223 -0.15714,0.0629 -0.12788,0.10499 -0.0162,0.13593 -0.48498,0.0732 -0.97169,0.14468 -1.46075,0.21098 -0.002,-0.0134 0.0272,-0.0215 0.0122,-0.0366 -0.0958,-0.0958 -0.34583,-0.10545 -0.55386,-0.0223 -0.1603,0.064 -0.1253,0.1073 -0.006,0.13795 -0.49471,0.0643 -0.97394,0.15584 -1.47292,0.21303 -10e-4,-0.0148 0.0311,-0.0237 0.0142,-0.0406 -0.0958,-0.0958 -0.34381,-0.10569 -0.55184,-0.0223 -0.13126,0.0525 -0.14061,0.0925 -0.0832,0.12375 -0.77907,0.0845 -1.58389,0.12924 -2.37371,0.19682 -0.0138,-0.009 0.0153,-0.0161 -0.0101,-0.0263 -0.19813,-0.0799 -0.5221,-0.0799 -0.72023,0 -0.0875,0.0353 -0.0808,0.0639 -0.0385,0.0892 -0.76627,0.06 -1.5158,0.1464 -2.29255,0.19071 -0.0399,0.007 -0.0768,-0.0116 -0.11361,-0.002 -0.0183,0.005 3.5e-4,0.008 -0.0142,0.0122 -0.20856,0.0116 -0.42164,0.0179 -0.63096,0.0284 -0.0132,-0.0121 -0.0256,-0.025 -0.0771,-0.0385 -0.27554,-0.0724 -0.79389,-0.0751 -1.15237,-0.006 -0.15534,0.0299 -0.15518,0.0567 -0.1055,0.0791 -1.54811,0.06 -3.0927,0.12577 -4.68453,0.12577 -1.67091,0 -3.31888,-0.0339 -4.95233,-0.0953 0.27122,-0.0206 0.41987,-0.0542 0.23128,-0.1035 -0.27552,-0.0724 -0.79389,-0.0751 -1.15236,-0.006 -0.11089,0.0213 -0.0707,0.0387 -0.0751,0.0569 -0.21426,-0.0104 -0.42533,-0.0276 -0.63908,-0.0385 -0.002,-9.2e-4 -0.002,-9.2e-4 -0.004,-0.002 -0.0133,-0.006 -0.0439,0.005 -0.0588,0 -0.97958,-0.0503 -1.95919,-0.10085 -2.9296,-0.17448 0.15772,-0.0249 0.23583,-0.0615 0.10144,-0.11562 -0.19813,-0.0799 -0.52413,-0.0799 -0.72225,0 -0.0696,0.0281 -0.0442,0.0488 -0.0304,0.0709 -0.7762,-0.0631 -1.54491,-0.15705 -2.31691,-0.23535 0.0574,-0.0272 0.0811,-0.0629 0.0365,-0.10753 -0.0958,-0.0958 -0.3438,-0.10568 -0.55184,-0.0223 -0.0705,0.0282 -0.0618,0.0482 -0.0771,0.0709 -0.64229,-0.0685 -1.28903,-0.11965 -1.9294,-0.19882 0.20334,-0.0127 0.33161,-0.0599 0.25361,-0.13797 -0.0958,-0.0958 -0.34584,-0.10545 -0.55387,-0.0224 -0.10033,0.0401 -0.11821,0.073 -0.10753,0.10143 -0.53239,-0.0677 -1.06304,-0.15605 -1.59464,-0.23129 0.19276,-0.0147 0.31336,-0.0599 0.23737,-0.13593 -0.0958,-0.0958 -0.34381,-0.10557 -0.55184,-0.0223 -0.0966,0.0386 -0.11189,0.0694 -0.1055,0.0974 -7.31587,-1.06292 -14.58857,-2.81446 -22.33722,-5.39259 -12.53515,-4.17069 -27.00394,-11.23203 -36.35631,-17.74399 -0.0845,-0.0589 -0.15338,-0.0895 -0.23737,-0.14608 0.0494,-0.079 -0.12163,-0.28289 -0.49301,-0.57416 -0.45708,-0.35845 -0.46598,-0.34953 -0.10752,0.10753 0.10811,0.13784 0.15844,0.16029 0.24954,0.25157 -1.04856,-0.6737 -2.01802,-1.18889 -2.37574,-1.18889 h -0.74051 l 1.21728,1.80159 c 1.78509,2.64223 5.82254,7.92736 8.60825,11.34106 -0.076,-0.0719 -0.10777,-0.12209 -0.22114,-0.211 -0.45708,-0.35845 -0.46802,-0.34752 -0.10955,0.1096 0.21754,0.27738 0.44534,0.50517 0.50517,0.50517 0.0641,0 0.095,-0.0201 0.10347,-0.0528 0.22479,0.27346 0.55928,0.72247 0.7608,0.96167 0.063,0.0748 0.13167,0.14449 0.19477,0.2191 -0.007,-0.006 -0.007,-0.006 -0.0142,-0.0122 -0.45708,-0.35848 -0.46803,-0.34956 -0.10956,0.10752 0.21754,0.27738 0.44535,0.50519 0.50518,0.50519 0.0623,0 0.0938,-0.0178 0.10347,-0.0487 1.36708,1.60062 2.75817,3.18183 4.18949,4.72511 l -0.75066,-0.67763 c 0.0497,-0.0786 -0.17168,-0.32356 -0.76892,-0.85007 l -0.79123,-0.69995 0.69791,0.79327 c 0.38426,0.43589 0.74164,0.79327 0.79326,0.79327 0.0346,0 0.0399,-0.0167 0.0548,-0.0284 l 0.74052,0.81963 c 0.72881,0.80642 0.97718,1.01766 1.01238,0.87239 3.21285,3.40134 6.57411,6.6555 10.07102,9.75452 -0.28549,-0.21709 -0.31393,-0.21196 -0.006,0.18057 0.29514,0.37637 0.49956,0.54309 0.57618,0.48691 l 0.44228,0.5214 c 0.30195,0.35664 0.59256,0.64922 0.6472,0.64922 0.23062,0 0.0616,-0.23269 -0.54778,-0.74862 l -0.53155,-0.44836 c 0.0109,-0.0183 0.0264,-0.0284 0.0264,-0.065 0,-0.045 -0.19816,-0.2207 -0.37939,-0.37937 22.43031,19.80288 50.23293,33.18631 78.14579,37.0887 6.65711,0.93071 12.38421,1.24072 19.64091,1.06514 7.45005,-0.18027 11.76613,-0.64027 18.2999,-1.95172 9.0548,-1.81747 15.53228,-4.0605 24.49588,-8.48247 6.16047,-3.0391 10.78088,-4.81446 15.70097,-6.03166 4.19842,-1.03865 5.99314,-1.34046 9.31834,-1.41002 0.10867,0.008 0.16736,0.0215 0.34083,0.0223 0.27848,9.2e-4 0.45864,-0.0125 0.58634,-0.0305 0.60814,-0.006 1.12654,-0.0198 1.86448,-0.0162 4.81311,0.023 5.61095,0.10085 8.20654,0.79325 5.06271,1.35052 9.38978,3.8438 13.19743,7.54517 l 0.19272,0.21099 c 0.54623,0.59439 1.03316,1.07933 1.08136,1.07933 0.0104,0 0.006,-0.009 0.0142,-0.0104 0.36656,0.39637 0.71679,0.83631 1.07324,1.25787 -0.1277,-0.0831 -0.13091,-0.0487 0.11564,0.26577 0.24942,0.31803 0.42896,0.47644 0.5275,0.48895 1.68792,2.10329 3.27354,4.47409 4.75553,7.18605 1.30629,2.39042 2.54937,-0.2365 3.12032,-6.59567 0.0318,-0.35439 0.0248,-0.70883 0.0466,-1.05903 0.0127,0.30256 0.0651,0.44339 0.13595,0.2678 0.0799,-0.19814 0.0799,-0.5221 0,-0.72024 -0.0581,-0.14384 -0.0984,-0.0477 -0.12174,0.14 0.0671,-1.23785 0.0698,-2.55556 0.0121,-3.92373 0.026,0.0375 0.0553,0.0705 0.0934,0.0324 0.0958,-0.0958 0.10557,-0.34583 0.0224,-0.55386 -0.0648,-0.16189 -0.10948,-0.12512 -0.13999,-0.002 -0.0271,-0.51633 -0.023,-0.96806 -0.067,-1.52972 -1.18064,-15.08588 -6.96881,-29.96632 -16.7945,-43.17921 l -2.44879,-3.29275 0.93732,-3.56463 c 0.48797,-1.8582 0.93031,-3.7571 1.06918,-4.53845 0.0217,0.14845 0.0628,0.24156 0.12985,0.17448 0.0958,-0.0958 0.10557,-0.34382 0.0223,-0.55185 -0.0251,-0.0627 -0.0419,-0.05 -0.0629,-0.069 l 0.13795,-0.88658 h 0.22926 l 0.12985,-0.87442 c 0.027,0.0887 0.0663,0.1304 0.1197,0.0771 0.0958,-0.0958 0.10546,-0.3438 0.0223,-0.55183 -0.0244,-0.0608 -0.0404,-0.0474 -0.0608,-0.0669 l 0.19476,-1.30858 c 0.0196,0.16367 0.0616,0.26907 0.13187,0.19882 0.0958,-0.0958 0.10546,-0.34582 0.0223,-0.55386 -0.0355,-0.0887 -0.0626,-0.0936 -0.0892,-0.0953 0.0879,-0.59235 0.14272,-1.06537 0.21708,-1.6048 0.0149,0.19135 0.0622,0.31107 0.13795,0.23534 0.0958,-0.0958 0.10569,-0.34381 0.0223,-0.55183 -0.0402,-0.10039 -0.073,-0.12038 -0.10143,-0.10959 0.0807,-0.60046 0.17855,-1.2609 0.24346,-1.81782 0.006,0.35786 0.0636,0.51378 0.13998,0.32462 0.0799,-0.19814 0.0799,-0.5221 0,-0.72024 -0.0394,-0.0974 -0.0731,-0.1043 -0.0994,-0.0425 0.36073,-3.25134 0.47528,-6.04059 0.47677,-10.54982 9.2e-4,-4.4053 -0.25647,-8.75321 -0.78109,-13.07772 0.0267,0.0464 0.0583,0.0736 0.0994,0.0324 0.0958,-0.0958 0.10569,-0.34379 0.0223,-0.55184 -0.0911,-0.2275 -0.15765,-0.15833 -0.17245,0.16839 -0.21298,-1.70802 -0.48624,-3.41202 -0.78312,-5.11463 0.0222,0.0151 0.0405,0.0509 0.069,0.0223 0.0958,-0.0958 0.10557,-0.3438 0.0224,-0.55183 -0.0794,-0.19806 -0.13386,-0.1336 -0.15825,0.0913 -1.96438,-10.99636 -5.67468,-21.92777 -11.2944,-33.32324 -1.55959,-3.16247 -3.18548,-6.16677 -4.84481,-9.03024 0.15955,0.27994 0.34135,0.52953 0.41389,0.52953 0.0792,0 0.006,-0.26121 -0.16434,-0.57822 -0.16966,-0.317 -0.37316,-0.57619 -0.45242,-0.57619 -0.074,0 0.008,0.24972 0.15419,0.53764 -0.55136,-0.94991 -1.10846,-1.8658 -1.66768,-2.77744 0.15558,0.26759 0.33136,0.51126 0.40171,0.51126 0.0792,0 0.006,-0.25918 -0.16434,-0.57618 -0.16966,-0.31701 -0.37317,-0.57619 -0.45243,-0.57619 -0.0747,0 0.005,0.25149 0.15419,0.54372 -0.24271,-0.39485 -0.48437,-0.78941 -0.72835,-1.1767 0.11477,0.18569 0.26067,0.34489 0.33274,0.34489 0.18893,0 -0.31545,-0.88712 -0.9008,-1.5845 -0.46445,-0.55337 -0.46604,-0.54767 -0.0709,0.14405 0.19824,0.34712 0.41079,0.71435 0.54575,0.94543 -1.24226,-1.96575 -2.49481,-3.8677 -3.75939,-5.61981 l -1.60479,-2.22358 -12.463,-0.0104 12.463,0.008 v 0.002 l 1.24975,1.71838 c 0.68703,0.94642 1.31402,1.72044 1.3938,1.72044 0.0798,0 -0.47396,-0.87572 -1.2315,-1.94562 -12.60818,-17.8066 -28.32613,-32.60382 -47.35653,-44.58518 z m -69.86823,43.88929 3.83243,0.0121 0.60255,0.53966 -0.60255,-0.53764 z m -35.65029,0.0832 c 0.56786,0.0475 1.101,0.16997 1.50741,0.46661 -0.43814,-0.24791 -0.90764,-0.40966 -1.50741,-0.46661 z m 128.66525,0.073 c -0.0961,0.0125 -0.27816,0.0198 -0.34693,0.0345 0.0891,-0.0124 0.22772,-0.0235 0.34693,-0.0345 z m -131.92352,1.35727 0.57416,0.63706 c 0.0153,0.0169 0.0493,0.0616 0.0649,0.0791 z m 159.4058,3.0838 c -0.14122,0 0.12994,0.52272 0.56198,1.08136 0.49618,0.6416 0.52437,0.38036 0.0386,-0.36112 -0.25963,-0.39627 -0.5302,-0.72024 -0.60053,-0.72024 z m -116.71351,5.76382 c -0.0793,0 0.26678,0.51834 0.76893,1.15235 0.50214,0.63402 0.97775,1.15441 1.05701,1.15441 0.0793,0 -0.26678,-0.52039 -0.76892,-1.15441 -0.50216,-0.63401 -0.97776,-1.15235 -1.05702,-1.15235 z m 2.01664,2.59485 c -0.0793,0 0.26678,0.51834 0.76892,1.15236 0.50216,0.63401 0.97776,1.15236 1.05702,1.15236 0.0793,0 -0.26678,-0.51835 -0.76892,-1.15236 -0.50215,-0.63402 -0.97776,-1.15236 -1.05702,-1.15236 z m 119.91498,0 c -0.0792,0 -0.006,0.25917 0.16434,0.57617 0.16965,0.31702 0.37316,0.57619 0.45242,0.57619 0.0792,0 0.006,-0.25917 -0.16434,-0.57619 -0.16966,-0.317 -0.37316,-0.57617 -0.45242,-0.57617 z m 1.72854,3.169 c -0.0792,0 -0.006,0.25917 0.16434,0.57618 0.16965,0.317 0.37316,0.57618 0.45242,0.57618 0.0792,0 0.006,-0.25918 -0.16434,-0.57618 -0.16963,-0.31701 -0.37316,-0.57618 -0.45242,-0.57618 z m -31.74482,0.68573 c -0.0303,0.0304 -0.0499,0.13039 -0.0568,0.29825 -0.0125,0.30377 0.0544,0.47514 0.15014,0.37938 0.0958,-0.0958 0.10764,-0.34381 0.0244,-0.55184 -0.046,-0.115 -0.0874,-0.15608 -0.11767,-0.12579 z m 35.67463,7.14953 c -0.0282,0.0643 0.0213,0.29297 0.16028,0.65531 0.0988,0.25754 0.2403,0.4069 0.31446,0.33274 0.0742,-0.0741 -0.002,-0.37011 -0.17042,-0.65938 -0.16985,-0.2921 -0.2761,-0.39297 -0.30432,-0.32867 z m -115.43738,1.81986 0.54778,0.64718 c 0.30194,0.35664 0.59458,0.64923 0.64922,0.64923 0.23062,0 0.0595,-0.23272 -0.54981,-0.74864 z m 1.5845,1.87258 c -0.0149,0.0148 0.0723,0.13259 0.25157,0.36114 0.37649,0.48007 0.61271,0.63281 0.61271,0.39561 0,-0.0598 -0.22779,-0.28764 -0.50518,-0.50517 -0.22854,-0.17924 -0.34422,-0.26644 -0.3591,-0.25158 z m 5.61981,6.77219 0.54778,0.6492 c 0.30194,0.35664 0.59448,0.64721 0.64922,0.64721 0.23062,0 0.0596,-0.23068 -0.54981,-0.74661 z m 1.44046,1.72854 0.69791,0.79327 c 0.38426,0.43589 0.74164,0.79327 0.79327,0.79327 0.22601,0 0.0428,-0.2336 -0.69792,-0.8866 z m -23.9197,12.9702 0.99412,1.07932 c 0.9244,1.00591 1.16657,1.2142 1.16657,0.99413 0,-0.0482 -0.48495,-0.53514 -1.07933,-1.08136 z m 140.86043,6.59161 c -0.0304,0.0303 -0.052,0.1324 -0.0589,0.30026 -0.0125,0.30377 0.0564,0.47314 0.15216,0.37735 0.0958,-0.0958 0.10546,-0.3438 0.0224,-0.55182 -0.046,-0.115 -0.0854,-0.15609 -0.11564,-0.12579 z m -133.94421,0.90078 1.43032,1.51351 c 0.78655,0.83213 1.46789,1.51145 1.51349,1.51145 0.21504,0 -0.0244,-0.26576 -1.43031,-1.59463 z m 35.86128,0.42809 c 0.12334,0.1668 0.30546,0.39043 0.28202,0.41387 -0.004,0.004 -0.10442,-0.056 -0.11565,-0.0569 -0.008,-0.0811 -0.0354,-0.17938 -0.16637,-0.35706 z m 98.37102,0.6898 c -0.0303,0.0303 -0.052,0.13037 -0.0589,0.29822 -0.0125,0.30377 0.0564,0.47518 0.15216,0.3794 0.0958,-0.0958 0.10545,-0.34582 0.0223,-0.55386 -0.046,-0.115 -0.0853,-0.15406 -0.11564,-0.12376 z m 0.5843,4.38629 c -0.0263,0.0653 -0.0427,0.2056 -0.0427,0.40373 0,0.39627 0.064,0.55724 0.14404,0.3591 0.0799,-0.19812 0.0799,-0.52208 0,-0.72022 -0.0399,-0.099 -0.0751,-0.10787 -0.10143,-0.0426 z m -129.05274,0.54778 5.76182,5.83486 c 3.16858,3.20968 5.79373,5.83688 5.83487,5.83688 0.20484,0 -0.33753,-0.55913 -5.7598,-5.91194 z m 129.35504,2.42036 c -0.0259,0.0643 -0.0436,0.2228 -0.0466,0.46055 -0.006,0.47552 0.0529,0.70637 0.13188,0.51126 0.0788,-0.19511 0.0852,-0.5859 0.0121,-0.86629 -0.0365,-0.1402 -0.0714,-0.16982 -0.0974,-0.10546 z m 0.36112,5.74559 c -0.035,-0.15502 -0.0586,0.88354 -0.0589,2.78557 -3.1e-4,2.53605 0.0434,3.61082 0.0974,2.38995 0.0538,-1.22087 0.0535,-3.29631 0,-4.6115 -0.0133,-0.32878 -0.027,-0.51233 -0.0385,-0.56402 z m -114.85105,6.38672 c -0.0792,0 0.43003,0.58315 1.13004,1.29642 0.70002,0.71325 1.33685,1.29842 1.41611,1.29842 0.0793,0 -0.428,-0.58517 -1.12802,-1.29842 -0.70001,-0.71327 -1.33888,-1.29642 -1.41813,-1.29642 z m 114.49195,3.75938 c -0.0239,0.0914 -0.0385,0.28664 -0.0385,0.56402 0,0.55482 0.0593,0.78053 0.13187,0.50315 0.0726,-0.27738 0.0726,-0.73096 0,-1.00834 -0.0362,-0.13867 -0.0695,-0.15024 -0.0933,-0.0589 z m -110.33695,0.13188 0.99412,1.07932 c 0.92439,1.00592 1.1686,1.21418 1.1686,0.99412 0,-0.0482 -0.48697,-0.53513 -1.08136,-1.08136 z m 3.45913,3.169 0.69791,0.79327 c 0.38427,0.43589 0.74164,0.79326 0.79326,0.79326 0.22603,0 0.0408,-0.23358 -0.69993,-0.88659 z m 2.88092,2.59485 0.5498,0.6472 c 0.30194,0.35663 0.59255,0.64922 0.64719,0.64922 0.23063,0 0.0615,-0.23271 -0.54778,-0.74864 z M 232.6606,373.91 l 0.32664,0.49909 c -0.1141,0.0158 -0.187,0.0593 -0.13593,0.14202 0.0381,0.0617 0.19095,0.0723 0.30229,0.11155 l 0.47474,0.72632 c 0.7734,1.18236 1.12551,1.48093 1.75898,1.48508 0.43588,0.004 0.79327,-0.0415 0.79327,-0.0974 0,-0.0558 -0.79296,-0.72254 -1.76101,-1.48307 l -0.72632,-0.57213 c 0.0947,-0.0565 -0.0739,-0.14266 -0.27997,-0.22114 z m 115.80865,2.96612 10.92312,0.0162 -10.90688,0.002 z m 1.25584,1.4445 c -0.0149,0.0148 0.0723,0.13058 0.25158,0.35912 0.21753,0.27738 0.44533,0.50517 0.50516,0.50517 0.23719,0 0.0845,-0.23622 -0.39562,-0.6127 -0.22854,-0.17923 -0.34624,-0.26645 -0.36112,-0.25159 z m 0.43213,0.14407 0.54982,0.64718 c 0.30194,0.35663 0.59457,0.64923 0.64921,0.64923 0.23063,0 0.0595,-0.23272 -0.54981,-0.74864 z m 1.29844,1.29641 c -0.0149,0.0148 0.0723,0.13258 0.25157,0.36111 0.37648,0.48009 0.61271,0.63078 0.61271,0.39359 0,-0.0598 -0.2278,-0.28559 -0.50517,-0.50313 -0.22854,-0.17924 -0.34423,-0.26646 -0.35911,-0.25157 z m 1.72856,1.44045 c -0.0149,0.0148 0.0723,0.13258 0.25156,0.36114 0.21755,0.27736 0.44332,0.50313 0.50315,0.50313 0.23719,0 0.0845,-0.23621 -0.39562,-0.6127 -0.22853,-0.17924 -0.34422,-0.26646 -0.35909,-0.25157 z m 3.169,2.59485 c -0.0148,0.0148 0.0723,0.13056 0.25158,0.35909 0.21753,0.27738 0.44532,0.50518 0.50516,0.50518 0.23719,0 0.0845,-0.23623 -0.39562,-0.6127 -0.22853,-0.17923 -0.34625,-0.26645 -0.36112,-0.25157 z m 1.44248,1.15236 c -0.0148,0.0148 0.0723,0.13056 0.25158,0.35911 0.21754,0.27738 0.44331,0.50517 0.50313,0.50517 0.2372,0 0.0845,-0.23623 -0.3956,-0.6127 -0.22855,-0.17923 -0.34422,-0.26645 -0.35911,-0.25158 z m 1.44045,1.15238 c -0.0148,0.0148 0.0723,0.13258 0.25158,0.36111 0.37649,0.48007 0.6127,0.63281 0.6127,0.39562 0,-0.0598 -0.22779,-0.28764 -0.50517,-0.50518 -0.22854,-0.17922 -0.34422,-0.26644 -0.35911,-0.25155 z m -114.69889,4.3234 c -0.0149,0.0148 0.0723,0.13057 0.25158,0.35911 0.21753,0.27738 0.44534,0.50517 0.50517,0.50517 0.23719,0 0.0844,-0.23624 -0.39562,-0.61271 -0.22854,-0.17922 -0.34625,-0.26644 -0.36113,-0.25157 z m 1.29642,1.58451 0.69994,0.79326 c 0.38426,0.43589 0.73961,0.79125 0.79123,0.79125 0.22602,0 0.0428,-0.2336 -0.69791,-0.88661 z m 5.76385,6.34003 2.73281,2.80991 c 1.50265,1.54541 2.76711,2.8099 2.8099,2.8099 0.20884,0 -0.12307,-0.34946 -2.7328,-2.88699 z m 43.89538,2.82817 c -0.2299,0.092 -0.16125,0.16066 0.17448,0.17448 0.30376,0.0125 0.47313,-0.0544 0.37736,-0.15013 -0.0958,-0.0958 -0.34381,-0.10752 -0.55184,-0.0244 z m -37.84343,2.93569 0.69994,0.79326 c 0.38425,0.43588 0.73961,0.79124 0.79123,0.79124 0.0325,0 0.0376,-0.0162 0.0528,-0.0263 l 0.59648,0.6756 c 0.38425,0.43587 0.73961,0.79123 0.79123,0.79123 0.22601,0 0.0428,-0.23156 -0.69791,-0.88455 l -0.67154,-0.59242 c 0.049,-0.0789 -0.17241,-0.32421 -0.76892,-0.85008 z m 6.48408,5.9079 c -0.0149,0.0148 0.0724,0.13055 0.25157,0.35909 0.21755,0.27738 0.44535,0.50519 0.50518,0.50519 0.23719,0 0.0844,-0.23624 -0.39562,-0.61271 -0.22854,-0.17922 -0.34626,-0.26644 -0.36113,-0.25157 z m 1.73058,1.44046 c -0.0149,0.0148 0.0724,0.13259 0.25157,0.36113 0.21753,0.27738 0.44331,0.50315 0.50314,0.50315 0.23719,0 0.0844,-0.23622 -0.39561,-0.61271 -0.22854,-0.17923 -0.34423,-0.26645 -0.3591,-0.25157 z m 2.88091,2.30675 c -0.0149,0.0148 0.0724,0.13056 0.25157,0.35912 0.37649,0.48006 0.6127,0.63279 0.6127,0.3956 0,-0.0598 -0.22576,-0.28763 -0.50314,-0.50517 -0.22854,-0.17923 -0.34626,-0.26441 -0.36113,-0.24955 z m 193.16523,13.65188 c -0.0304,0.0303 -0.0499,0.13241 -0.0568,0.30026 -0.0125,0.30377 0.0564,0.47313 0.15217,0.37736 0.0958,-0.0958 0.10545,-0.3438 0.0223,-0.55183 -0.046,-0.11489 -0.0874,-0.15608 -0.11767,-0.12579 z m -37.59793,0.84805 c -0.2299,0.092 -0.16126,0.16067 0.17446,0.17448 0.30376,0.0125 0.47314,-0.0564 0.37737,-0.15217 -0.0958,-0.0958 -0.34381,-0.10545 -0.55183,-0.0223 z m 10.66341,0 c -0.22989,0.092 -0.16123,0.16067 0.17449,0.17448 0.30378,0.0125 0.47313,-0.0564 0.37736,-0.15217 -0.0958,-0.0958 -0.34381,-0.10545 -0.55185,-0.0223 z m 27.22261,1.45871 c -0.0303,0.0304 -0.0499,0.13037 -0.0568,0.29824 -0.0125,0.30376 0.0564,0.47516 0.15217,0.37939 0.0958,-0.0958 0.10557,-0.34585 0.0223,-0.55387 -0.046,-0.115 -0.0874,-0.15407 -0.11767,-0.12376 z m 0.31447,3.07366 c -0.0239,0.0915 -0.0385,0.28663 -0.0385,0.56401 0,0.55471 0.0593,0.78052 0.13187,0.50314 0.0726,-0.27738 0.0726,-0.73094 0,-1.00832 -0.0362,-0.13869 -0.0695,-0.15024 -0.0934,-0.0589 z m -0.002,7.16373 c -0.026,0.0643 -0.0436,0.22279 -0.0466,0.46054 -0.006,0.47552 0.0529,0.70434 0.13187,0.50923 0.0788,-0.1951 0.0832,-0.58387 0.0103,-0.86427 -0.0365,-0.1402 -0.0694,-0.16981 -0.0953,-0.10546 z m -88.05449,4.73119 c -0.2299,0.092 -0.16125,0.15864 0.17447,0.17245 0.30377,0.0125 0.47313,-0.0544 0.37736,-0.15014 -0.0958,-0.0958 -0.3438,-0.10545 -0.55183,-0.0223 z m -34.58314,0.28809 c -0.22989,0.092 -0.16124,0.15863 0.17448,0.17245 0.30378,0.0125 0.47313,-0.0544 0.37736,-0.15013 -0.0958,-0.0958 -0.34381,-0.10557 -0.55184,-0.0223 z m 2.01664,0.2881 c -0.22989,0.0919 -0.16124,0.15861 0.17448,0.17244 0.30376,0.0125 0.47516,-0.0544 0.37939,-0.15013 -0.0958,-0.0958 -0.34584,-0.10545 -0.55387,-0.0223 z m 28.53119,0 c -0.2299,0.0919 -0.16125,0.15861 0.17448,0.17244 0.30376,0.0125 0.47313,-0.0544 0.37736,-0.15013 -0.0958,-0.0958 -0.34381,-0.10545 -0.55184,-0.0223 z m -2.59282,0.28809 c -0.2299,0.092 -0.16124,0.15862 0.17447,0.17245 0.30378,0.0125 0.47313,-0.0544 0.37736,-0.15013 -0.0958,-0.0958 -0.3438,-0.10569 -0.55183,-0.0223 z m -23.36178,0.006 c -0.19812,0.0799 -0.0351,0.14404 0.36113,0.14404 0.39627,0 0.55724,-0.064 0.3591,-0.14404 -0.19812,-0.08 -0.5221,-0.08 -0.72023,0 z m 3.60722,0.27795 c -0.28039,0.0731 -0.12045,0.1378 0.35505,0.14404 0.47553,0.006 0.70436,-0.0529 0.50924,-0.13187 -0.19511,-0.0788 -0.58389,-0.0852 -0.86429,-0.0121 z m 16.4273,0 c -0.28041,0.0731 -0.12046,0.1378 0.35506,0.14404 0.47552,0.006 0.70432,-0.0529 0.50922,-0.13187 -0.19513,-0.0788 -0.58388,-0.0852 -0.86428,-0.0121 z m -15.11668,0.005 c -0.22989,0.092 -0.16327,0.16066 0.17245,0.17447 0.30377,0.0125 0.47516,-0.0564 0.37939,-0.15216 -0.0958,-0.0958 -0.3438,-0.10545 -0.55184,-0.0223 z m 14.12053,0 c -0.2299,0.092 -0.16125,0.16066 0.17448,0.17447 0.30376,0.0125 0.47313,-0.0564 0.37736,-0.15216 -0.0958,-0.0958 -0.34381,-0.10545 -0.55184,-0.0223 z m -9.09516,0.27185 c -1.06989,0.0554 -0.19619,0.0995 1.94361,0.0995 2.13978,0 3.01552,-0.044 1.94562,-0.0995 -1.06988,-0.0554 -2.81934,-0.0554 -3.88923,0 z m 104.83278,1.07527 c -0.0243,0.0115 0.0626,0.12991 0.24549,0.36316 0.21753,0.27739 0.53239,0.50314 0.69791,0.50314 0.16548,0 0.24663,-0.0362 0.18056,-0.0812 -0.0661,-0.0448 -0.38091,-0.27265 -0.6979,-0.50517 -0.26658,-0.19553 -0.40176,-0.29094 -0.42606,-0.27998 z" /></svg>
